<svg width="40" height="40" viewBox="0 0 40 40" fill="none" xmlns="http://www.w3.org/2000/svg">
<g clip-path="url(#clip0)">
<path d="M26.9527 7.74812C26.9527 7.29625 26.7767 6.87125 26.4571 6.55164C25.7975 5.89211 24.7241 5.89195 24.0642 6.55164C23.8354 6.78047 23.8354 7.1514 24.0641 7.38015C24.293 7.60906 24.6639 7.60898 24.8927 7.38023C25.0955 7.17726 25.4255 7.17734 25.6284 7.38015C25.7267 7.47851 25.7809 7.60914 25.7809 7.74812C25.7809 7.88703 25.7267 8.01766 25.6284 8.11594C25.3996 8.34477 25.3996 8.7157 25.6284 8.94445C25.7429 9.05891 25.8928 9.11609 26.0428 9.11609C26.1927 9.11609 26.3427 9.05891 26.4571 8.94453C26.7766 8.62492 26.9527 8.20008 26.9527 7.74812Z" fill="#333333"/>
<path d="M39.0273 16.5551C39.593 15.1514 39.8981 13.6454 39.9152 12.0979C39.9489 9.05312 38.867 6.19125 36.857 3.97453C37.4531 3.40984 38.1807 2.9918 38.97 2.7625C39.2808 2.67227 39.4595 2.34719 39.3692 2.03648C39.279 1.7257 38.9538 1.54695 38.6432 1.63727C37.6648 1.92148 36.7639 2.44227 36.0284 3.14609C32.564 0.00625014 27.6529 -0.70875 23.451 0.9775C22.6512 0.344063 21.6681 0 20.6382 0C20.6153 0 20.5924 0.00015625 20.5695 0.00046875C19.3829 0.018125 18.267 0.490078 17.4277 1.32945C16.0009 2.75625 15.7064 4.89422 16.5989 6.61711C16.2449 6.60086 15.883 6.65422 15.5332 6.78555C12.9114 7.76953 9.07969 10.3538 6.81001 12.6688C5.56274 13.9408 4.90571 15.6951 5.00727 17.4818C5.03712 18.0063 5.08688 18.5886 5.15446 19.216C3.61852 20.6385 2.22805 22.4343 1.31344 24.1857C0.706725 25.3477 -0.206322 27.5116 0.495787 28.9491C0.498521 28.9548 0.501412 28.9606 0.504303 28.9666C-0.596244 31.9655 0.13399 35.3205 2.40672 37.5932C3.97946 39.1659 6.07008 40.0002 8.20282 40C9.15188 40 10.1095 39.8341 11.033 39.4952C11.0388 39.4982 11.0449 39.5014 11.0507 39.5042C11.3945 39.6721 11.805 39.7547 12.2704 39.7547C13.4274 39.7547 14.9227 39.2441 16.5688 38.2651C18.092 37.3591 19.5742 36.1477 20.7816 34.8459C21.4113 34.9136 21.9945 34.963 22.5181 34.9928C22.6388 34.9997 22.7591 35.003 22.8793 35.003C24.5393 35.003 26.145 34.3532 27.3313 33.1902C28.6581 31.8892 30.1113 30.0441 31.3184 28.1277C31.4909 27.8539 31.4088 27.4922 31.135 27.3197C30.8612 27.1472 30.4995 27.2293 30.327 27.5032C29.1663 29.3457 27.7755 31.1135 26.5109 32.3534C25.4738 33.3703 24.0433 33.9061 22.5848 33.823C22.3096 33.8073 22.0164 33.7859 21.7081 33.7591C21.8639 33.5587 22.0126 33.3577 22.1523 33.1567C22.8877 32.0989 23.268 30.8454 23.2523 29.5318C23.2256 27.2987 22.9473 23.4541 22.2469 19.3612C22.24 19.3212 22.2328 19.2802 22.2258 19.2398C26.0006 19.9962 29.1592 21.0055 31.3983 22.1742C32.0777 22.529 32.3871 23.3377 32.1177 24.0553C31.9877 24.4016 31.8234 24.7806 31.6291 25.1823C31.4883 25.4737 31.6102 25.8239 31.9016 25.9648C31.9838 26.0046 32.0706 26.0234 32.1563 26.0234C32.3739 26.0234 32.583 25.9016 32.6841 25.6925C32.8938 25.2588 33.0723 24.8466 33.2147 24.4671C33.3459 24.1175 33.3992 23.7558 33.3831 23.4018C34.036 23.7401 34.7484 23.9084 35.4595 23.9084C36.6244 23.9084 37.7849 23.4584 38.6708 22.5726C39.5102 21.7331 39.9822 20.6173 39.9997 19.4306C40.015 18.3784 39.6716 17.3716 39.0273 16.5551ZM18.2563 2.15797C19.3306 1.08375 20.9319 0.879766 22.2079 1.5582C21.1608 2.12063 20.1757 2.84414 19.2909 3.72898C18.6285 4.39133 18.0478 5.11852 17.5541 5.90047C17.0009 4.65633 17.2469 3.16734 18.2563 2.15797ZM3.23524 36.7646C1.41626 34.9456 0.75024 32.3177 1.43774 29.8845C2.33047 30.4589 4.10547 31.258 7.73212 32.2682C8.16329 33.8134 8.59977 35.1695 9.01782 36.255C9.44212 37.3567 9.80774 38.0795 10.1195 38.5611C7.68532 39.2505 5.05532 38.5847 3.23524 36.7646ZM21.1901 32.4877C19.9542 34.2655 18.0027 36.0488 15.9698 37.258C14.0651 38.3909 12.3772 38.8478 11.5648 38.4513C11.5467 38.4424 11.5273 38.4305 11.507 38.416C11.4853 38.3955 11.4623 38.3767 11.4381 38.3598C10.9575 37.9197 9.99868 36.1241 8.77993 31.6653C8.77571 31.6464 8.77063 31.6278 8.76462 31.6095C8.62649 31.1025 8.48508 30.5615 8.34063 29.9844C8.26204 29.6705 7.94407 29.4795 7.63001 29.5582C7.3161 29.6367 7.12532 29.9549 7.20383 30.2687C7.26141 30.499 7.31938 30.7252 7.37751 30.9493C2.93235 29.6605 1.8643 28.8134 1.61657 28.5301C1.61251 28.525 1.60813 28.5202 1.60391 28.5153C1.57063 28.4753 1.55508 28.4484 1.54852 28.4349C0.924459 27.157 2.46844 23.5927 5.33251 20.6752C5.61219 22.7441 6.04188 25.1485 6.57376 27.5779C6.64297 27.8941 6.95547 28.0939 7.27141 28.025C7.58751 27.9558 7.78758 27.6434 7.71852 27.3274C6.89149 23.5495 6.31524 19.844 6.17719 17.4152C6.0943 15.9571 6.62985 14.5261 7.64672 13.4891C9.81446 11.278 13.4595 8.81539 15.9449 7.88242C16.6624 7.61289 17.4713 7.92227 17.826 8.6018C18.7505 10.3728 20.0058 13.9611 20.9137 18.5379C20.917 18.5912 20.9272 18.6431 20.9441 18.6924C21.5763 21.9225 22.0334 25.6355 22.0803 29.5454C22.0932 30.614 21.7853 31.6313 21.1901 32.4877ZM32.802 21.8478C32.5739 21.5598 32.284 21.3147 31.9403 21.1352C29.4784 19.8501 26.1352 18.7961 21.999 18.0006C21.3986 14.8899 20.4102 11.0202 18.8648 8.05969C18.6854 7.71602 18.4402 7.42609 18.1522 7.19789C18.6729 6.23055 19.333 5.34406 20.1194 4.55766C24.4436 0.233438 31.3983 0.1525 35.6229 4.37711C39.8474 8.60164 39.7665 15.5564 35.4423 19.8805C34.6559 20.6671 33.7694 21.327 32.802 21.8478ZM37.842 21.7438C36.8327 22.753 35.3437 22.999 34.0996 22.4459C34.8816 21.9523 35.6086 21.3715 36.271 20.7091C37.1456 19.8346 37.8741 18.8538 38.4445 17.7971C39.1195 19.0722 38.9148 20.6709 37.842 21.7438Z" fill="#333333"/>
<path d="M32.2528 13.0477C31.8008 13.0477 31.376 13.2237 31.0563 13.5433C30.8275 13.7721 30.8276 14.143 31.0564 14.3718C31.2853 14.6005 31.6562 14.6006 31.885 14.3717C31.9833 14.2734 32.1139 14.2194 32.2528 14.2194C32.3917 14.2194 32.5224 14.2734 32.6207 14.3718C32.719 14.4701 32.7731 14.6007 32.7731 14.7396C32.7731 14.8786 32.719 15.0092 32.6207 15.1076C32.3919 15.3364 32.392 15.7073 32.6207 15.9361C32.7352 16.0505 32.8851 16.1077 33.035 16.1077C33.1849 16.1077 33.3349 16.0505 33.4494 15.936C33.769 15.6164 33.945 15.1916 33.945 14.7396C33.945 14.2877 33.769 13.8627 33.4494 13.5433C33.1296 13.2235 32.7048 13.0477 32.2528 13.0477Z" fill="#333333"/>
<path d="M28.6305 12.4031C28.3502 12.4222 28.0755 12.3198 27.8773 12.1217C27.6791 11.9235 27.5765 11.6489 27.5958 11.3684C27.618 11.0456 27.3743 10.766 27.0515 10.7438C26.7282 10.7227 26.4491 10.9654 26.4269 11.2882C26.3844 11.9066 26.6112 12.5125 27.0488 12.9502C27.4518 13.353 27.9969 13.577 28.5634 13.577C28.6124 13.577 28.6616 13.5754 28.7108 13.572C29.0337 13.5498 29.2773 13.2701 29.2552 12.9474C29.233 12.6246 28.9535 12.3815 28.6305 12.4031Z" fill="#333333"/>
</g>
<defs>
<clipPath id="clip0">
<rect width="40" height="40" fill="white"/>
</clipPath>
</defs>
</svg>
