<svg width="40" height="40" viewBox="0 0 40 40" fill="none" xmlns="http://www.w3.org/2000/svg">
<path d="M39.28 28.4188L33.4963 19.165C34.38 18.7787 35 17.8994 35 16.875C35 16.4175 34.8675 15.9944 34.6525 15.625H36.5144C38.0913 15.625 39.375 14.3413 39.375 12.7638C39.375 11.5869 38.6694 10.5444 37.5769 10.1075L35.8575 9.41938C35.6175 9.32375 35.3413 9.38562 35.1656 9.57687C34.99 9.7675 34.9506 10.0475 35.0662 10.2794C35.2412 10.6287 35.2231 11.02 35.0181 11.3519C34.8125 11.6844 34.4706 11.875 34.08 11.875H21.875V10.625H22.5C22.845 10.625 23.125 10.3456 23.125 10V7.5C23.125 7.15438 22.845 6.875 22.5 6.875H21.7381L21.3281 5.235C22.0294 4.79188 22.5 4.01437 22.5 3.125C22.5 1.74625 21.3787 0.625 20 0.625C18.6213 0.625 17.5 1.74625 17.5 3.125C17.5 4.01437 17.9706 4.79188 18.6719 5.235L18.2619 6.875H17.5C17.155 6.875 16.875 7.15438 16.875 7.5V10C16.875 10.3456 17.155 10.625 17.5 10.625H18.125V11.875H5.92C5.52938 11.875 5.1875 11.6844 4.9825 11.3519C4.77688 11.02 4.75938 10.6287 4.93437 10.2794C5.05062 10.0475 5.01125 9.7675 4.835 9.57687C4.65938 9.38562 4.38375 9.32375 4.14313 9.41938L2.42437 10.1075C1.33062 10.5444 0.625 11.5869 0.625 12.7638C0.625 14.3413 1.90875 15.625 3.48625 15.625H5.34812C5.1325 15.9944 5 16.4175 5 16.875C5 17.8994 5.62 18.7787 6.50312 19.165L0.72 28.4188L0.729375 28.425C0.66875 28.5206 0.625 28.6281 0.625 28.75C0.625 31.2031 3.645 33.125 7.5 33.125C11.355 33.125 14.375 31.2031 14.375 28.75C14.375 28.6281 14.3313 28.5206 14.2706 28.4244L14.28 28.4181L8.49625 19.1644C9.38 18.7787 10 17.8994 10 16.875C10 16.4175 9.8675 15.9944 9.6525 15.625H18.125V30.2388C17.7406 30.6781 17.5 31.2463 17.5 31.875C17.5 32.5031 17.7406 33.0713 18.1244 33.5106C18.1225 34.4294 17.4644 35.205 16.5581 35.3563L11.995 36.1169C11.2013 36.2494 10.625 36.93 10.625 37.735C10.625 38.6394 11.3606 39.375 12.265 39.375H27.735C28.6394 39.375 29.375 38.6394 29.375 37.735C29.375 36.93 28.7987 36.2494 28.005 36.1169L23.4419 35.3563C22.535 35.205 21.8775 34.4294 21.8756 33.5106C22.2594 33.0713 22.5 32.5031 22.5 31.875C22.5 31.2469 22.2594 30.6787 21.875 30.2388V15.625H30.3475C30.1325 15.9944 30 16.4175 30 16.875C30 17.8994 30.62 18.7787 31.5031 19.165L25.72 28.4188L25.7294 28.425C25.6688 28.5206 25.625 28.6281 25.625 28.75C25.625 31.2031 28.645 33.125 32.5 33.125C36.355 33.125 39.375 31.2031 39.375 28.75C39.375 28.6281 39.3312 28.5206 39.2706 28.4244L39.28 28.4188ZM20 1.875C20.6894 1.875 21.25 2.43562 21.25 3.125C21.25 3.81437 20.6894 4.375 20 4.375C19.3106 4.375 18.75 3.81437 18.75 3.125C18.75 2.43562 19.3106 1.875 20 1.875ZM19.8662 5.61125C19.9112 5.61375 19.9544 5.625 20 5.625C20.0456 5.625 20.0888 5.61375 20.1338 5.61125L20.4494 6.875H19.5506L19.8662 5.61125ZM18.125 8.125H21.875V9.375H18.125V8.125ZM19.375 10.625H20.625V11.875H19.375V10.625ZM1.875 12.7638C1.875 12.1006 2.2725 11.5144 2.88812 11.2681L3.57625 10.9931C3.61 11.3463 3.72438 11.6938 3.91937 12.0094C4.35063 12.7081 5.09875 13.125 5.92 13.125H34.08C34.9012 13.125 35.6494 12.7081 36.0812 12.0094C36.2762 11.6938 36.3913 11.3463 36.4244 10.9931L37.1125 11.2681C37.7275 11.5144 38.125 12.1006 38.125 12.7638C38.125 13.6525 37.4025 14.375 36.5138 14.375H3.48625C2.5975 14.375 1.875 13.6525 1.875 12.7638ZM7.5 19.9294L12.6219 28.125H2.37813L7.5 19.9294ZM7.5 31.875C4.835 31.875 2.53125 30.7819 1.99312 29.375H13.0062C12.4688 30.7819 10.165 31.875 7.5 31.875ZM8.75 16.875C8.75 17.5644 8.18937 18.125 7.5 18.125C6.81063 18.125 6.25 17.5644 6.25 16.875C6.25 16.1856 6.81063 15.625 7.5 15.625C8.18937 15.625 8.75 16.1856 8.75 16.875ZM21.25 31.875C21.25 32.5644 20.6894 33.125 20 33.125C19.3106 33.125 18.75 32.5644 18.75 31.875C18.75 31.1856 19.3106 30.625 20 30.625C20.6894 30.625 21.25 31.1856 21.25 31.875ZM23.2363 36.5894L27.7987 37.35C27.9881 37.3819 28.125 37.5431 28.125 37.735C28.125 37.95 27.95 38.125 27.735 38.125H12.265C12.05 38.125 11.875 37.95 11.875 37.735C11.875 37.5431 12.0119 37.3819 12.2006 37.35L16.7638 36.5894C18.0212 36.38 18.9819 35.4444 19.2738 34.255C19.5056 34.3256 19.7456 34.375 20 34.375C20.2544 34.375 20.4944 34.3256 20.7256 34.255C21.0175 35.4444 21.9788 36.38 23.2363 36.5894ZM20.625 29.4637C20.4237 29.4112 20.2169 29.375 20 29.375C19.7831 29.375 19.5763 29.4112 19.375 29.4637V15.625H20.625V29.4637ZM32.5 15.625C33.1894 15.625 33.75 16.1856 33.75 16.875C33.75 17.5644 33.1894 18.125 32.5 18.125C31.8106 18.125 31.25 17.5644 31.25 16.875C31.25 16.1856 31.8106 15.625 32.5 15.625ZM37.6219 28.125H27.3781L32.5 19.9294L37.6219 28.125ZM32.5 31.875C29.835 31.875 27.5312 30.7819 26.9931 29.375H38.0063C37.4688 30.7819 35.165 31.875 32.5 31.875Z" fill="#333333"/>
</svg>
