<svg width="40" height="40" viewBox="0 0 40 40" fill="none" xmlns="http://www.w3.org/2000/svg">
<path d="M37.3045 3.02492C37.2615 2.96156 37.2037 2.90967 37.1361 2.8738C37.0685 2.83793 36.9931 2.81916 36.9166 2.81914C36.84 2.81912 36.7647 2.83785 36.697 2.87368C36.6294 2.90951 36.5716 2.96135 36.5286 3.02468C36.4676 3.11468 35.0291 5.23758 34.6583 6.02554C34.4473 6.47351 34.2227 7.00633 34.2227 7.66125C34.2227 8.3757 34.5065 9.06088 35.0117 9.56607C35.5169 10.0713 36.202 10.3551 36.9165 10.3551C37.6309 10.3551 38.3161 10.0713 38.8213 9.56607C39.3265 9.06088 39.6103 8.3757 39.6103 7.66125C39.6103 6.99875 39.4127 6.52797 39.1741 6.02429C38.7984 5.23172 37.3653 3.11461 37.3045 3.02492ZM36.9165 9.41609C36.451 9.41572 36.0047 9.23076 35.6755 8.90179C35.3462 8.57282 35.1609 8.12669 35.1601 7.66125C35.1601 7.19961 35.3312 6.79718 35.5064 6.42468C35.7345 5.94031 36.4595 4.82156 36.9163 4.13156C37.372 4.82031 38.0953 5.9375 38.3269 6.42578C38.5613 6.92039 38.6727 7.2314 38.6727 7.66125C38.672 8.12666 38.4866 8.57277 38.1574 8.90174C37.8282 9.23071 37.3819 9.41568 36.9165 9.41609Z" fill="#333333"/>
<path d="M4.94271 37.772C5.07596 37.9087 5.23504 38.0176 5.41071 38.0923C5.58638 38.1671 5.77515 38.2062 5.96606 38.2074C6.15697 38.2086 6.34622 38.1719 6.52284 38.0994C6.69945 38.0269 6.85991 37.9201 6.99491 37.7851C7.1299 37.6501 7.23675 37.4896 7.30924 37.313C7.38174 37.1364 7.41844 36.9472 7.41722 36.7562C7.41599 36.5653 7.37687 36.3766 7.30212 36.2009C7.22737 36.0252 7.11848 35.8661 6.98177 35.7329L5.93708 34.6875L9.0481 31.5766L11.2825 33.8109C11.4248 33.9532 11.5937 34.0661 11.7796 34.1431C11.9655 34.2201 12.1648 34.2597 12.366 34.2597C12.5672 34.2597 12.7665 34.2201 12.9524 34.1431C13.1383 34.0661 13.3072 33.9532 13.4495 33.8109C13.5917 33.6686 13.7046 33.4997 13.7816 33.3138C13.8586 33.1279 13.8982 32.9286 13.8982 32.7274C13.8982 32.5262 13.8586 32.3269 13.7816 32.141C13.7046 31.9551 13.5917 31.7862 13.4494 31.6439L13.2796 31.474L26.8968 17.8568C27.1866 17.5675 27.3623 17.1833 27.3915 16.7748C27.4207 16.3663 27.3014 15.9611 27.0556 15.6335L28.8275 13.8616C29.0373 13.6511 29.1754 13.3797 29.2219 13.0861C29.2684 12.7925 29.2211 12.4917 29.0866 12.2266L31.341 9.97219C31.6441 9.66794 31.8371 9.27129 31.8895 8.84501C31.9419 8.41872 31.8506 7.98715 31.63 7.61859L36.6426 2.60602C36.6861 2.56249 36.7207 2.51081 36.7442 2.45393C36.7678 2.39706 36.7799 2.3361 36.7799 2.27454C36.7799 2.21298 36.7678 2.15203 36.7442 2.09516C36.7206 2.03829 36.6861 1.98661 36.6426 1.94309C36.5991 1.89956 36.5474 1.86503 36.4905 1.84148C36.4336 1.81793 36.3727 1.80581 36.3111 1.80581C36.2496 1.80581 36.1886 1.81794 36.1317 1.8415C36.0749 1.86506 36.0232 1.89959 35.9797 1.94313L30.9694 6.95352C30.6004 6.73278 30.1683 6.64153 29.7416 6.69425C29.3149 6.74697 28.918 6.94063 28.6138 7.24453L26.3593 9.49891C26.0941 9.36438 25.7932 9.31701 25.4995 9.36354C25.2058 9.41007 24.9343 9.54814 24.7237 9.75805L22.9518 11.53C22.6243 11.2842 22.219 11.1649 21.8105 11.1941C21.402 11.2232 21.0178 11.3989 20.7285 11.6888L7.1113 25.3059L6.94146 25.136C6.65408 24.8486 6.2643 24.6871 5.85787 24.6871C5.45143 24.6871 5.06164 24.8485 4.77423 25.1359C4.48682 25.4233 4.32535 25.8131 4.32532 26.2195C4.3253 26.6259 4.48674 27.0157 4.77411 27.3031L7.00849 29.5375L3.89786 32.6484L2.85294 31.6036C2.58104 31.3405 2.21665 31.1948 1.83834 31.198C1.46002 31.2011 1.09808 31.3528 0.830564 31.6203C0.563045 31.8878 0.411374 32.2497 0.408252 32.6281C0.405131 33.0064 0.550809 33.3708 0.813878 33.6427L4.94271 37.772ZM29.2765 7.9075C29.4624 7.72163 29.7145 7.61721 29.9774 7.61721C30.2402 7.61721 30.4923 7.72163 30.6782 7.9075C30.864 8.09337 30.9685 8.34546 30.9685 8.60832C30.9685 8.87118 30.864 9.12327 30.6782 9.30914L28.4732 11.514L27.0717 10.1123L29.2765 7.9075ZM25.3866 10.421C25.4752 10.3326 25.5953 10.2829 25.7206 10.2829C25.8458 10.2829 25.9659 10.3326 26.0545 10.421L28.1647 12.5312C28.2532 12.6199 28.3028 12.74 28.3028 12.8652C28.3028 12.9904 28.2532 13.1104 28.1647 13.1991L26.4065 14.9573L23.6284 12.1797L25.3866 10.421ZM21.3913 12.3516C21.4624 12.2804 21.5469 12.224 21.6398 12.1854C21.7328 12.1469 21.8324 12.1271 21.9331 12.1271C22.0337 12.1271 22.1333 12.1469 22.2263 12.1854C22.3192 12.224 22.4037 12.2804 22.4748 12.3516L26.2338 16.1105C26.305 16.1817 26.3614 16.2661 26.3999 16.3591C26.4384 16.4521 26.4583 16.5517 26.4583 16.6523C26.4583 16.7529 26.4384 16.8526 26.3999 16.9455C26.3614 17.0385 26.305 17.1229 26.2338 17.1941L25.014 18.4141L23.2808 16.6809C23.1927 16.5942 23.0738 16.5458 22.9502 16.5463C22.8265 16.5468 22.7081 16.5961 22.6206 16.6835C22.5332 16.771 22.4838 16.8894 22.4833 17.0131C22.4828 17.1367 22.5311 17.2556 22.6179 17.3438L24.3509 19.0769L23.3393 20.0885L22.6385 19.3877C22.595 19.3442 22.5433 19.3097 22.4864 19.2861C22.4295 19.2626 22.3686 19.2504 22.307 19.2504C22.2455 19.2504 22.1845 19.2625 22.1276 19.2861C22.0708 19.3096 22.0191 19.3442 21.9756 19.3877C21.932 19.4312 21.8975 19.4829 21.8739 19.5398C21.8504 19.5966 21.8382 19.6576 21.8382 19.7192C21.8382 19.7807 21.8504 19.8417 21.8739 19.8985C21.8975 19.9554 21.932 20.0071 21.9755 20.0506L22.6764 20.7514L21.6647 21.7634L19.9316 20.0303C19.8881 19.9868 19.8364 19.9523 19.7795 19.9287C19.7227 19.9052 19.6617 19.893 19.6001 19.893C19.5386 19.893 19.4776 19.9052 19.4208 19.9287C19.3639 19.9523 19.3122 19.9868 19.2687 20.0304C19.2252 20.0739 19.1906 20.1256 19.1671 20.1824C19.1435 20.2393 19.1314 20.3003 19.1314 20.3618C19.1314 20.4234 19.1435 20.4843 19.1671 20.5412C19.1907 20.5981 19.2252 20.6498 19.2687 20.6933L21.0018 22.4263L19.9901 23.438L19.2893 22.7372C19.2014 22.6493 19.0822 22.5999 18.9579 22.5999C18.8336 22.5999 18.7143 22.6492 18.6264 22.7371C18.5385 22.8251 18.4891 22.9443 18.4891 23.0686C18.4891 23.1929 18.5385 23.3122 18.6264 23.4001L19.3272 24.1009L18.3155 25.1126L16.5825 23.3795C16.4946 23.2915 16.3753 23.2421 16.251 23.2421C16.1267 23.2421 16.0074 23.2915 15.9195 23.3795C15.8316 23.4674 15.7822 23.5866 15.7822 23.7109C15.7822 23.8353 15.8316 23.9545 15.9195 24.0424L17.6526 25.7755L16.6413 26.7872L15.9404 26.0863C15.8525 25.9984 15.7333 25.949 15.609 25.9491C15.4846 25.9491 15.3654 25.9985 15.2775 26.0864C15.1896 26.1743 15.1402 26.2935 15.1402 26.4178C15.1402 26.5422 15.1896 26.6614 15.2775 26.7493L15.9783 27.4501L14.9665 28.4617L13.2333 26.7286C13.1454 26.6407 13.0262 26.5913 12.9019 26.5913C12.7775 26.5913 12.6583 26.6407 12.5704 26.7286C12.4825 26.8165 12.4331 26.9358 12.4331 27.0601C12.4331 27.1844 12.4825 27.3037 12.5704 27.3916L14.3036 29.125L12.6167 30.8118L7.77411 25.9688L21.3913 12.3516ZM5.43731 26.6406C5.32577 26.5291 5.2631 26.3778 5.26309 26.2201C5.26308 26.0623 5.32574 25.911 5.43728 25.7995C5.54881 25.6879 5.70009 25.6253 5.85783 25.6253C6.01558 25.6253 6.16686 25.6879 6.27841 25.7995L12.7866 32.3073C12.8982 32.4188 12.9608 32.5701 12.9608 32.7279C12.9608 32.8856 12.8982 33.0369 12.7866 33.1484C12.6751 33.26 12.5238 33.3226 12.366 33.3226C12.2083 33.3226 12.057 33.26 11.9454 33.1484L5.43731 26.6406ZM7.67169 30.2009L8.38513 30.9143L5.27411 34.0249L4.56067 33.3115L7.67169 30.2009ZM1.47638 32.267C1.57106 32.1725 1.69935 32.1194 1.8331 32.1194C1.96684 32.1194 2.09513 32.1725 2.18982 32.267L6.31896 36.396C6.36698 36.4426 6.40527 36.4982 6.43158 36.5597C6.4579 36.6213 6.47171 36.6874 6.47223 36.7543C6.47275 36.8212 6.45996 36.8875 6.4346 36.9494C6.40924 37.0113 6.37182 37.0676 6.32451 37.1149C6.27721 37.1622 6.22098 37.1996 6.15907 37.225C6.09717 37.2503 6.03084 37.2631 5.96395 37.2626C5.89705 37.2621 5.83093 37.2483 5.76942 37.222C5.70791 37.1957 5.65225 37.1574 5.60567 37.1094L1.47653 32.98C1.38194 32.8854 1.3288 32.7571 1.3288 32.6233C1.3288 32.4895 1.38194 32.3612 1.47653 32.2666L1.47638 32.267Z" fill="#333333"/>
<path d="M21.7872 14.1605C21.8707 14.1605 21.9529 14.1398 22.0266 14.1005C22.1002 14.0611 22.163 14.0041 22.2094 13.9347C22.2558 13.8652 22.2843 13.7854 22.2925 13.7023C22.3007 13.6191 22.2882 13.5353 22.2562 13.4581C22.2242 13.381 22.1737 13.3129 22.1091 13.26C22.0445 13.207 21.9678 13.1708 21.8859 13.1545C21.804 13.1383 21.7193 13.1425 21.6394 13.1668C21.5595 13.1911 21.4868 13.2347 21.4278 13.2938C21.3568 13.3649 21.3085 13.4554 21.289 13.5539C21.2695 13.6523 21.2796 13.7544 21.318 13.8472C21.3565 13.9399 21.4216 14.0192 21.5051 14.075C21.5886 14.1307 21.6867 14.1605 21.7872 14.1605Z" fill="#333333"/>
<path d="M15.4475 20.5174C15.509 20.5175 15.57 20.5054 15.6269 20.4818C15.6838 20.4583 15.7355 20.4237 15.779 20.3802L21.1804 14.9785C21.2683 14.8906 21.3177 14.7714 21.3177 14.647C21.3177 14.5227 21.2683 14.4035 21.1804 14.3156C21.0925 14.2277 20.9733 14.1783 20.8489 14.1783C20.7246 14.1783 20.6054 14.2277 20.5175 14.3156L15.1158 19.7172C15.0503 19.7827 15.0056 19.8663 14.9875 19.9572C14.9694 20.0481 14.9787 20.1424 15.0142 20.2281C15.0497 20.3137 15.1098 20.3869 15.1869 20.4384C15.264 20.4899 15.3546 20.5174 15.4473 20.5174H15.4475Z" fill="#333333"/>
</svg>
