<svg width="40" height="40" viewBox="0 0 40 40" fill="none" xmlns="http://www.w3.org/2000/svg">
<path d="M39.931 21.526C39.4977 19.0501 37.1391 17.3942 34.6632 17.8276C32.7744 18.1582 31.2953 19.6372 30.9647 21.526H25.6601C22.4877 21.526 19.916 24.0977 19.916 27.2701V33.6969C20.0159 36.0003 18.2296 37.9487 15.9262 38.0486C13.6228 38.1486 11.6745 36.3623 11.5745 34.0588C11.5693 33.9382 11.5693 33.8175 11.5745 33.6969V24.5001C17.1616 23.9822 21.5874 17.9948 21.5874 10.6892V3.7366C21.5874 3.30325 21.2361 2.95189 20.8027 2.95189H17.6168V1.13136C17.6168 0.698004 17.2654 0.346649 16.8321 0.346649C16.3987 0.346649 16.0474 0.698004 16.0474 1.13136V6.334C16.0474 6.76736 16.3987 7.11871 16.8321 7.11871C17.2654 7.11871 17.6168 6.76736 17.6168 6.334V4.52132H20.0259V10.697C20.0259 17.4769 15.8826 22.9856 10.7976 22.9856C5.7127 22.9856 1.56942 17.4926 1.56942 10.697V4.52132H3.92356V6.334C3.92356 6.76736 4.27491 7.11871 4.70827 7.11871C5.14163 7.11871 5.49298 6.76736 5.49298 6.334V1.13136C5.49298 0.698004 5.14163 0.346649 4.70827 0.346649C4.27491 0.346649 3.92356 0.698004 3.92356 1.13136V2.95189H0.784712C0.351355 2.95189 0 3.30325 0 3.7366V10.697C0 17.9948 4.42578 23.9822 10.0129 24.5001V33.6969C9.89571 36.8671 12.3706 39.5321 15.5408 39.6493C18.7111 39.7666 21.376 37.2917 21.4933 34.1214C21.4985 33.98 21.4985 33.8384 21.4933 33.6969V27.2701C21.4933 24.9645 23.3623 23.0954 25.6679 23.0954H30.9647C31.3981 25.5714 33.7566 27.2273 36.2326 26.7939C38.7086 26.3605 40.3645 24.002 39.931 21.526ZM35.4376 25.2926C33.7908 25.2926 32.4557 23.9576 32.4557 22.3107C32.46 20.6657 33.7925 19.3331 35.4376 19.3288C37.0844 19.3288 38.4195 20.6639 38.4195 22.3107C38.4195 23.9576 37.0845 25.2926 35.4376 25.2926Z" fill="#333333"/>
<path d="M35.4381 23.7703C36.2442 23.7703 36.8976 23.1168 36.8976 22.3107C36.8976 21.5046 36.2442 20.8512 35.4381 20.8512C34.632 20.8512 33.9785 21.5046 33.9785 22.3107C33.9785 23.1168 34.632 23.7703 35.4381 23.7703Z" fill="#333333"/>
</svg>
