<svg width="30" height="102" viewBox="0 0 30 102" fill="none" xmlns="http://www.w3.org/2000/svg">
<mask id="path-1-inside-1" fill="white">
<path d="M26.4216 77.2764C28.3004 79.4834 29.4996 82.1873 29.8742 85.0614C30.2488 87.9354 29.7827 90.8564 28.5323 93.4712C27.282 96.0859 25.3008 98.2824 22.8285 99.7951C20.3562 101.308 17.4986 102.072 14.6013 101.995C11.704 101.918 8.89101 101.003 6.50259 99.361C4.11416 97.7191 2.25256 95.4204 1.1429 92.7429C0.0332402 90.0654 -0.276947 87.1237 0.249847 84.2736C0.776641 81.4236 2.11785 78.7872 4.11129 76.6832L15 87L26.4216 77.2764Z"/>
</mask>
<path d="M26.4216 77.2764C28.3004 79.4834 29.4996 82.1873 29.8742 85.0614C30.2488 87.9354 29.7827 90.8564 28.5323 93.4712C27.282 96.0859 25.3008 98.2824 22.8285 99.7951C20.3562 101.308 17.4986 102.072 14.6013 101.995C11.704 101.918 8.89101 101.003 6.50259 99.361C4.11416 97.7191 2.25256 95.4204 1.1429 92.7429C0.0332402 90.0654 -0.276947 87.1237 0.249847 84.2736C0.776641 81.4236 2.11785 78.7872 4.11129 76.6832L15 87L26.4216 77.2764Z" fill="white" stroke="#F2F2F2" stroke-width="2" mask="url(#path-1-inside-1)"/>
<mask id="path-2-inside-2" fill="white">
<path d="M25.6066 76.3934C26.9995 77.7863 28.1044 79.4399 28.8582 81.2598C29.612 83.0796 30 85.0302 30 87L15 87L25.6066 76.3934Z"/>
</mask>
<path d="M25.6066 76.3934C26.9995 77.7863 28.1044 79.4399 28.8582 81.2598C29.612 83.0796 30 85.0302 30 87L15 87L25.6066 76.3934Z" fill="white" stroke="white" stroke-width="2" mask="url(#path-2-inside-2)"/>
<mask id="path-3-inside-3" fill="white">
<path d="M4.39339 76.3934C3.00052 77.7863 1.89562 79.4399 1.1418 81.2598C0.387984 83.0796 -1.2837e-06 85.0302 0 87L15 87L4.39339 76.3934Z"/>
</mask>
<path d="M4.39339 76.3934C3.00052 77.7863 1.89562 79.4399 1.1418 81.2598C0.387984 83.0796 -1.2837e-06 85.0302 0 87L15 87L4.39339 76.3934Z" fill="white" stroke="white" stroke-width="2" mask="url(#path-3-inside-3)"/>
<rect x="1" y="87" width="28" height="1" fill="white"/>
<mask id="path-5-inside-4" fill="white">
<path d="M0.915049 9.84111C1.97665 6.94269 3.90658 4.44235 6.44156 2.68119C8.97654 0.920022 11.9931 -0.0162102 15.0798 0.000210953C18.1665 0.0166321 21.1729 0.984907 23.689 2.77295C26.2051 4.56098 28.1083 7.08171 29.139 9.99126L15 15L0.915049 9.84111Z"/>
</mask>
<path d="M0.915049 9.84111C1.97665 6.94269 3.90658 4.44235 6.44156 2.68119C8.97654 0.920022 11.9931 -0.0162102 15.0798 0.000210953C18.1665 0.0166321 21.1729 0.984907 23.689 2.77295C26.2051 4.56098 28.1083 7.08171 29.139 9.99126L15 15L0.915049 9.84111Z" fill="#F7F7F7" stroke="#F2F2F2" stroke-width="2" mask="url(#path-5-inside-4)"/>
<mask id="path-6-inside-5" fill="white">
<path d="M1.85404 10.5131C2.84487 7.71127 4.64614 5.29428 7.01212 3.59182C9.3781 1.88936 12.1936 0.984332 15.0745 1.00021C17.9554 1.01608 20.7614 1.95208 23.1098 3.68052C25.4581 5.40895 27.2345 7.84566 28.1964 10.6582L15 15.5L1.85404 10.5131Z"/>
</mask>
<path d="M1.85404 10.5131C2.84487 7.71127 4.64614 5.29428 7.01212 3.59182C9.3781 1.88936 12.1936 0.984332 15.0745 1.00021C17.9554 1.01608 20.7614 1.95208 23.1098 3.68052C25.4581 5.40895 27.2345 7.84566 28.1964 10.6582L15 15.5L1.85404 10.5131Z" fill="#F8F8F8" stroke="#F7F7F7" stroke-width="2" mask="url(#path-6-inside-5)"/>
<circle cx="15" cy="38" r="5" fill="#EEEEEE"/>
<circle cx="15" cy="60" r="5" fill="#EEEEEE"/>
<circle cx="15" cy="14" r="6.5" fill="#EEEEEE" stroke="#333333"/>
<circle cx="15" cy="84" r="6.5" fill="#EEEEEE" stroke="#333333"/>
</svg>
