<svg width="30" height="67" viewBox="0 0 30 67" fill="none" xmlns="http://www.w3.org/2000/svg">
<circle cx="15" cy="6" r="6" fill="#EEEEEE"/>
<circle cx="15" cy="28" r="6" fill="#EEEEEE"/>
<mask id="path-3-inside-1" fill="white">
<path d="M30 52C30 53.9698 29.612 55.9204 28.8582 57.7403C28.1044 59.5601 26.9995 61.2137 25.6066 62.6066C24.2137 63.9995 22.5601 65.1044 20.7403 65.8582C18.9204 66.612 16.9698 67 15 67C13.0302 67 11.0796 66.612 9.25975 65.8582C7.43986 65.1044 5.78628 63.9995 4.3934 62.6066C3.00052 61.2137 1.89563 59.5601 1.14181 57.7403C0.387986 55.9204 -1.72208e-07 53.9698 0 52L15 52H30Z"/>
</mask>
<path d="M30 52C30 53.9698 29.612 55.9204 28.8582 57.7403C28.1044 59.5601 26.9995 61.2137 25.6066 62.6066C24.2137 63.9995 22.5601 65.1044 20.7403 65.8582C18.9204 66.612 16.9698 67 15 67C13.0302 67 11.0796 66.612 9.25975 65.8582C7.43986 65.1044 5.78628 63.9995 4.3934 62.6066C3.00052 61.2137 1.89563 59.5601 1.14181 57.7403C0.387986 55.9204 -1.72208e-07 53.9698 0 52L15 52H30Z" fill="white" stroke="#F2F2F2" stroke-width="2" mask="url(#path-3-inside-1)"/>
<mask id="path-4-inside-2" fill="white">
<path d="M26.4216 42.2764C28.3004 44.4834 29.4996 47.1873 29.8742 50.0614C30.2488 52.9354 29.7827 55.8564 28.5323 58.4712C27.282 61.0859 25.3008 63.2824 22.8285 64.7951C20.3562 66.3077 17.4986 67.0717 14.6013 66.9947C11.704 66.9177 8.89101 66.0029 6.50259 64.361C4.11416 62.7191 2.25256 60.4204 1.1429 57.7429C0.0332402 55.0654 -0.276947 52.1237 0.249847 49.2736C0.776641 46.4236 2.11785 43.7872 4.11129 41.6832L15 52L26.4216 42.2764Z"/>
</mask>
<path d="M26.4216 42.2764C28.3004 44.4834 29.4996 47.1873 29.8742 50.0614C30.2488 52.9354 29.7827 55.8564 28.5323 58.4712C27.282 61.0859 25.3008 63.2824 22.8285 64.7951C20.3562 66.3077 17.4986 67.0717 14.6013 66.9947C11.704 66.9177 8.89101 66.0029 6.50259 64.361C4.11416 62.7191 2.25256 60.4204 1.1429 57.7429C0.0332402 55.0654 -0.276947 52.1237 0.249847 49.2736C0.776641 46.4236 2.11785 43.7872 4.11129 41.6832L15 52L26.4216 42.2764Z" fill="white" stroke="#F2F2F2" stroke-width="2" mask="url(#path-4-inside-2)"/>
<mask id="path-5-inside-3" fill="white">
<path d="M25.6066 41.3934C26.9995 42.7863 28.1044 44.4399 28.8582 46.2598C29.612 48.0796 30 50.0302 30 52L15 52L25.6066 41.3934Z"/>
</mask>
<path d="M25.6066 41.3934C26.9995 42.7863 28.1044 44.4399 28.8582 46.2598C29.612 48.0796 30 50.0302 30 52L15 52L25.6066 41.3934Z" fill="white" stroke="white" stroke-width="2" mask="url(#path-5-inside-3)"/>
<mask id="path-6-inside-4" fill="white">
<path d="M4.39339 41.3934C3.00052 42.7863 1.89562 44.4399 1.1418 46.2598C0.387984 48.0796 -1.2837e-06 50.0302 0 52L15 52L4.39339 41.3934Z"/>
</mask>
<path d="M4.39339 41.3934C3.00052 42.7863 1.89562 44.4399 1.1418 46.2598C0.387984 48.0796 -1.2837e-06 50.0302 0 52L15 52L4.39339 41.3934Z" fill="white" stroke="white" stroke-width="2" mask="url(#path-6-inside-4)"/>
<rect x="1" y="52" width="28" height="1" fill="white"/>
<circle cx="15" cy="52" r="7.5" fill="#EEEEEE" stroke="#333333"/>
</svg>
