<svg width="30" height="120" viewBox="0 0 30 120" fill="none" xmlns="http://www.w3.org/2000/svg">
<circle cx="15" cy="37" r="6" fill="#EEEEEE"/>
<circle cx="15" cy="59" r="6" fill="#EEEEEE"/>
<circle cx="15" cy="81" r="6" fill="#EEEEEE"/>
<mask id="path-4-inside-1" fill="white">
<path d="M30 105C30 106.97 29.612 108.92 28.8582 110.74C28.1044 112.56 26.9995 114.214 25.6066 115.607C24.2137 116.999 22.5601 118.104 20.7403 118.858C18.9204 119.612 16.9698 120 15 120C13.0302 120 11.0796 119.612 9.25975 118.858C7.43986 118.104 5.78628 116.999 4.3934 115.607C3.00052 114.214 1.89563 112.56 1.14181 110.74C0.387986 108.92 -1.72208e-07 106.97 0 105L15 105H30Z"/>
</mask>
<path d="M30 105C30 106.97 29.612 108.92 28.8582 110.74C28.1044 112.56 26.9995 114.214 25.6066 115.607C24.2137 116.999 22.5601 118.104 20.7403 118.858C18.9204 119.612 16.9698 120 15 120C13.0302 120 11.0796 119.612 9.25975 118.858C7.43986 118.104 5.78628 116.999 4.3934 115.607C3.00052 114.214 1.89563 112.56 1.14181 110.74C0.387986 108.92 -1.72208e-07 106.97 0 105L15 105H30Z" fill="white" stroke="#F2F2F2" stroke-width="2" mask="url(#path-4-inside-1)"/>
<mask id="path-5-inside-2" fill="white">
<path d="M26.4216 95.2764C28.3004 97.4834 29.4996 100.187 29.8742 103.061C30.2488 105.935 29.7827 108.856 28.5323 111.471C27.282 114.086 25.3008 116.282 22.8285 117.795C20.3562 119.308 17.4986 120.072 14.6013 119.995C11.704 119.918 8.89101 119.003 6.50259 117.361C4.11416 115.719 2.25256 113.42 1.1429 110.743C0.0332402 108.065 -0.276947 105.124 0.249847 102.274C0.776641 99.4236 2.11785 96.7872 4.11129 94.6832L15 105L26.4216 95.2764Z"/>
</mask>
<path d="M26.4216 95.2764C28.3004 97.4834 29.4996 100.187 29.8742 103.061C30.2488 105.935 29.7827 108.856 28.5323 111.471C27.282 114.086 25.3008 116.282 22.8285 117.795C20.3562 119.308 17.4986 120.072 14.6013 119.995C11.704 119.918 8.89101 119.003 6.50259 117.361C4.11416 115.719 2.25256 113.42 1.1429 110.743C0.0332402 108.065 -0.276947 105.124 0.249847 102.274C0.776641 99.4236 2.11785 96.7872 4.11129 94.6832L15 105L26.4216 95.2764Z" fill="white" stroke="#F2F2F2" stroke-width="2" mask="url(#path-5-inside-2)"/>
<mask id="path-6-inside-3" fill="white">
<path d="M25.6066 94.3934C26.9995 95.7863 28.1044 97.4399 28.8582 99.2598C29.612 101.08 30 103.03 30 105L15 105L25.6066 94.3934Z"/>
</mask>
<path d="M25.6066 94.3934C26.9995 95.7863 28.1044 97.4399 28.8582 99.2598C29.612 101.08 30 103.03 30 105L15 105L25.6066 94.3934Z" fill="white" stroke="white" stroke-width="2" mask="url(#path-6-inside-3)"/>
<mask id="path-7-inside-4" fill="white">
<path d="M4.39339 94.3934C3.00052 95.7863 1.89562 97.4399 1.1418 99.2598C0.387984 101.08 -1.2837e-06 103.03 0 105L15 105L4.39339 94.3934Z"/>
</mask>
<path d="M4.39339 94.3934C3.00052 95.7863 1.89562 97.4399 1.1418 99.2598C0.387984 101.08 -1.2837e-06 103.03 0 105L15 105L4.39339 94.3934Z" fill="white" stroke="white" stroke-width="2" mask="url(#path-7-inside-4)"/>
<rect x="1" y="105" width="28" height="1" fill="white"/>
<mask id="path-9-inside-5" fill="white">
<path d="M0.915049 9.84111C1.97665 6.94269 3.90658 4.44235 6.44156 2.68119C8.97654 0.920022 11.9931 -0.0162102 15.0798 0.000210953C18.1665 0.0166321 21.1729 0.984907 23.689 2.77295C26.2051 4.56098 28.1083 7.08171 29.139 9.99126L15 15L0.915049 9.84111Z"/>
</mask>
<path d="M0.915049 9.84111C1.97665 6.94269 3.90658 4.44235 6.44156 2.68119C8.97654 0.920022 11.9931 -0.0162102 15.0798 0.000210953C18.1665 0.0166321 21.1729 0.984907 23.689 2.77295C26.2051 4.56098 28.1083 7.08171 29.139 9.99126L15 15L0.915049 9.84111Z" fill="#F7F7F7" stroke="#F2F2F2" stroke-width="2" mask="url(#path-9-inside-5)"/>
<mask id="path-10-inside-6" fill="white">
<path d="M1.85404 10.5131C2.84487 7.71127 4.64614 5.29428 7.01212 3.59182C9.3781 1.88936 12.1936 0.984332 15.0745 1.00021C17.9554 1.01608 20.7614 1.95208 23.1098 3.68052C25.4581 5.40895 27.2345 7.84566 28.1964 10.6582L15 15.5L1.85404 10.5131Z"/>
</mask>
<path d="M1.85404 10.5131C2.84487 7.71127 4.64614 5.29428 7.01212 3.59182C9.3781 1.88936 12.1936 0.984332 15.0745 1.00021C17.9554 1.01608 20.7614 1.95208 23.1098 3.68052C25.4581 5.40895 27.2345 7.84566 28.1964 10.6582L15 15.5L1.85404 10.5131Z" fill="#F7F7F7" stroke="#F7F7F7" stroke-width="2" mask="url(#path-10-inside-6)"/>
<circle cx="15" cy="105" r="7.5" fill="#EEEEEE" stroke="#333333"/>
<circle cx="15" cy="13" r="7.5" fill="#EEEEEE" stroke="#333333"/>
</svg>
